<?xml version="1.0" standalone="no"?>
<!DOCTYPE svg PUBLIC "-//W3C//DTD SVG 20010904//EN"
 "http://www.w3.org/TR/2001/REC-SVG-20010904/DTD/svg10.dtd">
<svg version="1.0" xmlns="http://www.w3.org/2000/svg"
 width="64.000000pt" height="64.000000pt" viewBox="0 0 64.000000 64.000000"
 preserveAspectRatio="xMidYMid meet">

<g transform="translate(0.000000,64.000000) scale(0.100000,-0.100000)"
fill="#000" stroke="none">
<path d="M190 631 c-45 -14 -84 -39 -116 -73 -54 -56 -68 -94 -68 -183 -1 -90
-6 -86 90 -70 39 7 40 7 58 -34 24 -53 92 -120 151 -151 26 -13 66 -46 88 -72
22 -27 44 -48 49 -48 36 0 151 134 163 191 10 45 -8 59 -74 59 -79 0 -98 8
-110 42 -6 17 -11 33 -11 36 0 3 49 2 109 -2 71 -4 112 -3 116 4 13 20 -7 50
-38 58 -26 7 -33 15 -39 45 -19 91 -81 163 -167 192 -46 16 -158 19 -201 6z
m181 -21 c85 -24 155 -101 167 -185 7 -46 10 -50 40 -56 33 -7 49 -16 41 -23
-2 -2 -46 -2 -96 1 -88 5 -93 7 -93 28 0 12 -9 30 -20 40 -17 16 -29 16 -132
6 -117 -11 -145 -24 -135 -62 3 -13 -9 -20 -54 -33 -32 -9 -61 -16 -64 -16 -9
0 -5 91 7 138 15 61 95 144 153 159 53 14 141 15 186 3z m29 -215 c7 -8 10
-21 7 -29 -7 -19 -234 -28 -241 -10 -10 26 15 36 105 43 52 5 99 9 105 10 6 0
17 -6 24 -14z m-101 -131 c15 -14 7 -34 -15 -34 -15 0 -114 47 -114 54 0 3 -3
11 -6 19 -14 37 82 9 135 -39z m-19 56 c0 -13 -11 -13 -30 0 -12 8 -11 10 8
10 12 0 22 -4 22 -10z m116 -15 c4 -14 4 -28 1 -31 -9 -9 -66 7 -82 23 -25 24
-17 33 30 33 39 0 45 -3 51 -25z m14 -67 c25 -9 25 -10 5 -24 -14 -10 -31 -13
-55 -9 -43 8 -40 6 -33 33 6 23 21 23 83 0z m-150 -32 c0 -2 -6 -6 -14 -9 -9
-4 -21 5 -31 19 l-16 25 30 -16 c17 -8 31 -17 31 -19z m319 15 c20 -13 6 -41
-21 -41 -13 0 -46 3 -75 6 -47 6 -51 8 -40 25 9 15 24 19 67 19 30 0 61 -4 69
-9z m-227 -40 c4 -4 -5 -14 -20 -23 -26 -16 -31 -16 -51 -2 -18 13 -20 19 -10
30 12 15 64 11 81 -5z m165 -19 l52 -7 -19 -25 c-17 -23 -25 -25 -88 -23 -37
1 -82 7 -98 13 l-29 11 25 19 c26 21 64 23 157 12z m-27 -82 c25 -1 25 -1 -9
-30 -38 -33 -41 -32 -72 12 l-23 31 40 -6 c21 -4 50 -7 64 -7z"/>
</g>
</svg>
