<?xml version="1.0" encoding="utf-8"?>
<!-- Generator: Adobe Illustrator 25.4.1, SVG Export Plug-In . SVG Version: 6.00 Build 0)  -->
<svg version="1.1" id="Layer_1" xmlns="http://www.w3.org/2000/svg" xmlns:xlink="http://www.w3.org/1999/xlink" x="0px" y="0px"
	 viewBox="0 0 500 500" style="enable-background:new 0 0 500 500;" xml:space="preserve">
<style type="text/css">
	.st0{fill:#FFFFFF;}
</style>
<g id="OBJECTS">
	<path class="st0" d="M391.5,465.6c-13.5-2.2-19.3-7.1-19.3-7.1s4.1-0.2,4.1-3.1c0-2-1.5-17.6-2.7-31.4c3.1-0.3,5.9-0.2,5.9-0.2
		c1.7-5.7,0-10,0-10c-1.5-0.4-4.1-0.2-6.6,0.2c-0.2-2.2-0.3-4.2-0.4-5.9c-0.1-3.1-0.5-7.7-0.9-13c3.8-0.5,7.9-0.4,7.9-0.4
		c1.7-5.7,0-10,0-10c-1.9-0.5-5.7,0-8.8,0.5c-0.5-5.7-1.1-11.5-1.6-16.7c3.6-0.4,7.2-0.3,7.2-0.3c1.7-5.7,0-10,0-10
		c-1.8-0.4-5.2-0.1-8.2,0.4c-0.5-4.5-0.8-7.4-0.8-7.4s0.8-15.7,0.8-24.9c0-9.2,2.8-23.4-3.8-28.1c-6.6-4.7-16.3-4.5-16.3-4.5
		s-6.9,0.3-14.1,3.7c-1.6-1.1-12.9-10.5-23.9-16.8c-9.1-5.2-18-7-21.1-10c9-3.2-0.1-11.2,1.6-26.4c1-9.1,6.3-22.7,8.8-29.8
		c1.4-4.1-7-17.9-8.4-24.4c-1.3-6.1-0.1-16.9-7.9-20.7c-2.6-1.2-10.4-5-14.8-6.4c-6.6-2.2-7.3-11.1-11.9-12.1
		c1.2-2.1,2.5-9.6,2.8-12c8.8-1.1,10.9-6.9,12.7-7.9c4.9-2.7,6.4-1.1,6.2-2.5c-0.1-0.6-18.2-8.5-18.2-8.5s-6.7-21-27.1-20.1
		c-0.1-0.2-0.2-0.3-0.4-0.5c-0.8-0.8-3.7-0.5-5.5,0c-1.1,0.3-1.6,1.2-1.8,1.8c-20,5.9-14.9,29.4-13,35.2c0.3,0.9,1.5,1.5,1.5,1.5
		s0.6,5,1.4,7.3c-7.3,0-6.8-0.8-11.9-1.7c-5.3-0.9-7.6-0.8-13.3,4.9c-5.7,5.7-14.9,14.7-19.5,15.4c-3.9,0.6-11.5,17.7-15.7,21.9
		c-0.7-6.1-8.1-69.5-12.5-102.1c-5.8-42.9-8.8-64.5-25.8-61c-17.8,3.7-0.9,51.5,2.7,70.1c3.6,18.6,19.7,99.4,19.7,99.4
		s-4-1.4-6.3-0.1c-3.8,2-4,6.6-1.6,9c0,0-2.6,2.1-0.9,5.7c1.6,3.6,3.5,3.6,3.5,3.6s-1.6,2.1-0.3,4.6c1.3,2.5,2.8,2.6,2.8,2.6
		s-1.1,2.8,2.5,4.2c0,0-4.4,1.9-3.8,5.4c0.6,3.5,3.7,4.8,3.7,4.8s-2.7,1.5-1.9,4.3c0.8,2.8,2.8,5,2.8,5s-2.4,2.3-1.5,4.7
		s4.6,4.6,4.6,4.6s1,4.2,3.2,4.8c2.2,0.7,5.7,0,5.7,0s2.1,7.1,3.1,8s8.7,1.5,8.9-0.8s-1-10.2-1-10.2s4.8,1.3,7.4-1.4
		c0,0,1.2,2.8,9.8,2.8c3.3,0,4.2,4.8,6.4,5.8c1.2,0.5,9.4,2.7,23.3-0.7c-0.8,17.1,5.6,18.1,5.6,18.1s-7.9,3.5-12,12.3
		c-2.5,5.3-12.6,19.4-17.3,26.9c-9.1,14.6-10.9,28.5-15.3,34.8c-2.1,2.9-16.3,16.8-18.3,18.7c-0.8,0.8-1.8,2.8-2.8,4.9
		c-2.8-1.3-5.2-0.9-5.9-0.2c-1.4,1.4-2.6,5.2-3.7,8.7c-4.2-1.3-10.4-2.7-17.9-2.6c0,0-2.4,1.4-0.9,5.9c0,0,9.1,0.1,16.8,2.4
		c-0.4,0.9-0.7,1.9-1.2,2.9c-0.3,0.7-0.8,1.9-1.4,3.4c-4.1-1.2-9.7-2.2-16.3-2.1c0,0-2.4,1.4-0.9,5.9c0,0,7.7,0.1,15,1.9
		c-0.8,2-1.6,4.1-2.5,6.3c-3.9-1-8.8-1.7-14.6-1.6c0,0-2.4,1.4-0.9,5.9c0,0,6.5,0.1,13.3,1.5c-2.9,7.4-5.6,14.5-6.6,17.6
		c-2.3,6.8,7.1,12.1,7.1,12.1s-5.3,7.7-11.3,11.3c-8.5,5-14.9,5-15.1,13.2c0,1.5,1.2,2.8,2.7,2.9c4.2,0.3,14,0.6,29.6-0.3
		c2.8-0.2,5.4-1.9,6.5-4.5c0.2-0.4,0.3-0.7,0.5-1.2c1.8-5.1,9.2-3.3,14.4-6.7c4.1-2.6,3-9,3-9s5.2-2.2,6.7-5.9
		c1.5-3.8,7.1-21.6,10.4-24.9s11.2-4.8,14-11.9c2.2-5.6,5.3-11.6,5.6-15.6c0.1-1.1-1.4-4.1-4-5c9.2-5.7,21.3-19.6,29.7-27.3
		c11-10,33.3-32.3,34.5-32.3c7.2,0,35.9,12.9,43.8,15.3c15.8,4.7,20.6,3.8,22.6,4.8c-1.9,8.1-3.1,15.6,0.4,37.6
		c3.6,22,12.2,58.7,12.1,66.5c-0.2,10.8,4.7,10,4.7,10s-3.8,9.6-2.4,16.1c0.7,3.5,12.4,2.6,22,2.6c9.5,0,39.4,0.6,39.4-0.8
		C398.2,475.6,397.7,466.6,391.5,465.6z M201.3,229.3c-4.9,0-12.4-4.5-15.2-1.7c-2.8,2.8-4.1,4.2-4.1,4.2s-9.1-1.1-10.8-1.1
		c-1.2,0-4.1-5.7-8-8.6c6.9-2.7,21.6-20.4,24.4-23.2c4.2,11.1,15,21.4,17.4,30.1C203.5,229.1,202.2,229.3,201.3,229.3z"/>
</g>
</svg>
