<?xml version="1.0" encoding="utf-8"?>
<!-- Generator: Adobe Illustrator 25.4.1, SVG Export Plug-In . SVG Version: 6.00 Build 0)  -->
<svg version="1.1" id="Layer_1" xmlns="http://www.w3.org/2000/svg" xmlns:xlink="http://www.w3.org/1999/xlink" x="0px" y="0px"
	 viewBox="0 0 500 500" style="enable-background:new 0 0 500 500;" xml:space="preserve">
<g id="OBJECTS">
	<path d="M392.7,467.5c-13.6-2.2-19.5-7.2-19.5-7.2s4.2-0.2,4.2-3.2c0-2-1.5-17.7-2.7-31.7c3.1-0.3,5.9-0.2,5.9-0.2
		c1.7-5.7,0-10.1,0-10.1c-1.5-0.4-4.1-0.2-6.7,0.2c-0.2-2.2-0.3-4.2-0.4-6c-0.1-3.1-0.5-7.8-0.9-13.1c3.8-0.5,8-0.4,8-0.4
		c1.7-5.7,0-10.1,0-10.1c-2-0.5-5.7,0-8.9,0.5c-0.5-5.7-1.1-11.6-1.6-16.9c3.6-0.4,7.3-0.3,7.3-0.3c1.7-5.7,0-10.1,0-10.1
		c-1.8-0.4-5.3-0.1-8.3,0.4c-0.5-4.5-0.8-7.5-0.8-7.5s0.8-15.8,0.8-25.1c0-9.3,2.9-23.6-3.8-28.4c-6.7-4.7-16.4-4.6-16.4-4.6
		s-7,0.3-14.2,3.8c-1.6-1.1-13-10.6-24.1-16.9c-9.2-5.2-18.2-7.1-21.3-10.1c9.1-3.2-0.1-11.3,1.6-26.7c1-9.2,6.3-22.9,8.9-30.1
		c1.5-4.1-7.1-18.1-8.5-24.6c-1.3-6.2-0.1-17.1-8-20.9c-2.6-1.2-10.5-5-15-6.5c-6.7-2.2-7.4-11.2-12-12.2c1.2-2.1,2.5-9.7,2.8-12.1
		c8.9-1.1,11-7,12.8-8c5-2.7,6.4-1.1,6.3-2.5c-0.1-0.6-18.4-8.5-18.4-8.5s-6.8-21.2-27.4-20.3c-0.1-0.2-0.2-0.3-0.4-0.5
		c-0.8-0.8-3.8-0.6-5.5,0c-1.1,0.3-1.6,1.2-1.8,1.8c-20.1,5.9-15,29.7-13.1,35.5c0.3,0.9,1.5,1.5,1.5,1.5s0.6,5.1,1.5,7.4
		c-7.3,0-6.8-0.8-12-1.7c-5.3-0.9-7.7-0.8-13.4,4.9c-5.7,5.7-15.1,14.8-19.6,15.5c-4,0.6-11.6,17.9-15.8,22.1
		c-0.7-6.1-8.1-70.1-12.6-103c-5.8-43.2-8.8-65.1-26.1-61.5c-18,3.7-0.9,51.9,2.7,70.7c3.6,18.8,19.9,100.3,19.9,100.3
		s-4-1.4-6.3-0.1c-3.9,2.1-4.1,6.7-1.6,9.1c0,0-2.6,2.1-1,5.7c1.6,3.6,3.5,3.6,3.5,3.6s-1.6,2.1-0.3,4.6c1.3,2.5,2.9,2.6,2.9,2.6
		s-1.1,2.8,2.5,4.2c0,0-4.4,1.9-3.8,5.5c0.6,3.5,3.7,4.9,3.7,4.9s-2.7,1.5-1.9,4.3c0.8,2.8,2.8,5.1,2.8,5.1s-2.4,2.3-1.5,4.8
		c0.9,2.5,4.7,4.6,4.7,4.6s1.1,4.2,3.3,4.9c2.2,0.7,5.7,0,5.7,0s2.1,7.1,3.1,8c1,0.9,8.8,1.5,9-0.8c0.1-2.3-1-10.3-1-10.3
		s4.9,1.3,7.4-1.4c0,0,1.2,2.9,9.8,2.9c3.4,0,4.2,4.8,6.5,5.9c1.2,0.5,9.5,2.7,23.5-0.7c-0.8,17.2,5.6,18.2,5.6,18.2
		s-8,3.6-12.1,12.4c-2.5,5.4-12.7,19.6-17.5,27.2c-9.2,14.7-11,28.8-15.5,35.1c-2.1,2.9-16.5,16.9-18.4,18.9
		c-0.8,0.8-1.9,2.8-2.8,4.9c-2.8-1.3-5.2-0.9-5.9-0.2c-1.4,1.4-2.6,5.2-3.7,8.8c-4.2-1.3-10.5-2.7-18.1-2.6c0,0-2.4,1.4-0.9,5.9
		c0,0,9.2,0.1,17,2.4c-0.4,0.9-0.8,1.9-1.2,2.9c-0.3,0.8-0.8,1.9-1.4,3.4c-4.1-1.2-9.8-2.2-16.5-2.1c0,0-2.4,1.4-0.9,5.9
		c0,0,7.8,0.1,15.1,1.9c-0.8,2-1.6,4.1-2.5,6.4c-3.9-1-8.9-1.7-14.7-1.6c0,0-2.4,1.4-0.9,5.9c0,0,6.6,0.1,13.4,1.5
		c-2.9,7.5-5.6,14.7-6.7,17.8c-2.3,6.8,7.2,12.2,7.2,12.2s-5.3,7.8-11.4,11.4c-8.6,5.1-15,5-15.2,13.3c0,1.6,1.2,2.9,2.7,3
		c4.3,0.3,14.2,0.6,29.9-0.3c2.9-0.2,5.5-1.9,6.6-4.5c0.2-0.4,0.3-0.8,0.5-1.2c1.8-5.1,9.3-3.3,14.5-6.7c4.1-2.7,3.1-9,3.1-9
		s5.3-2.2,6.7-6c1.5-3.8,7.1-21.8,10.5-25.2c3.4-3.4,11.3-4.8,14.2-12c2.3-5.6,5.3-11.7,5.7-15.7c0.1-1.1-1.4-4.2-4-5
		c9.2-5.8,21.5-19.8,30-27.5c11.1-10.1,33.5-32.6,34.8-32.6c7.3,0,36.2,13,44.2,15.4c16,4.8,20.8,3.8,22.8,4.8
		c-1.9,8.1-3.1,15.8,0.4,37.9c3.6,22.1,12.3,59.2,12.2,67.1c-0.2,10.9,4.7,10.1,4.7,10.1s-3.8,9.7-2.4,16.3
		c0.7,3.5,12.5,2.6,22.1,2.6c9.6,0,39.7,0.7,39.7-0.8S399,468.5,392.7,467.5z M200.9,229.1c-5,0-12.5-4.6-15.3-1.7
		c-2.9,2.9-4.2,4.2-4.2,4.2s-9.2-1.1-10.9-1.1c-1.2,0-4.2-5.8-8-8.7c7-2.7,21.8-20.6,24.6-23.4c4.2,11.1,15.2,21.6,17.6,30.3
		C203,228.9,201.7,229.1,200.9,229.1z"/>
</g>
</svg>
