<?xml version="1.0" encoding="utf-8"?>
<!-- Generator: Adobe Illustrator 25.4.1, SVG Export Plug-In . SVG Version: 6.00 Build 0)  -->
<svg version="1.1" id="Layer_1" xmlns="http://www.w3.org/2000/svg" xmlns:xlink="http://www.w3.org/1999/xlink" x="0px" y="0px"
	 viewBox="0 0 750 500" style="enable-background:new 0 0 750 500;" xml:space="preserve">
<style type="text/css">
	.st0{display:none;}
	.st1{display:inline;fill:#EBEBEB;}
	.st2{fill:#F5F5F5;}
	.st3{fill:#E0E0E0;}
	.st4{fill:none;stroke:#FFFFFF;stroke-width:0.8802;stroke-miterlimit:10;}
	.st5{opacity:0.2;enable-background:new    ;}
	.st6{fill:#E8505B;}
	.st7{fill:#263238;}
	.st8{fill:#455A64;}
	.st9{fill:#B78876;}
	.st10{fill:#A36957;}
	.st11{opacity:0.3;}
	.st12{fill:#FAFAFA;}
	.st13{opacity:0.5;}
	.st14{fill:#FFFFFF;}
</style>
<g id="Background_Simple" class="st0">
	<path class="st1" d="M150.7,164.4c-8.5,67.1,25.9,135.9,80.3,176.1s125.9,53.5,192.9,43.9c47.8-6.8,95.2-25.6,128.9-60.2
		s51.5-86.6,37.9-132.9c-5.1-17.5-15.2-34.5-31.2-43.2c-25.5-14-57-3.7-84.2,6.8c-27.2,10.5-58.6,20.9-84.2,7
		c-19.7-10.7-29.7-32.7-44.2-49.8c-24.5-29.1-64.3-44.6-102-39.6c-4.7,0.6-9.4,1.6-14,2.8c-40.1,10.8-70.5,43.7-79.2,84.4
		L150.7,164.4z"/>
</g>
<g>
	<g id="Background_Complete">
		<g>
			<g>
				
					<rect x="167.6" y="180.9" transform="matrix(0.8312 -0.556 0.556 0.8312 -110.8817 171.5439)" class="st2" width="118.8" height="175"/>
			</g>
			<g>
				<g>
					<polygon class="st3" points="274,301.2 272.9,308.1 223.8,301 224.9,294.1 					"/>
				</g>
				<g>
					<polygon class="st3" points="249.3,276.4 256.4,277.4 248.5,325.8 241.5,324.8 					"/>
				</g>
			</g>
			<g>
				<g>
					<path class="st4" d="M235.4,217.8"/>
				</g>
			</g>
			<g>
				<g>
					<path class="st3" d="M204.1,215c0.1,0.1-9.8,6.8-22.1,15.1c-12.3,8.2-22.3,14.8-22.4,14.7c-0.1-0.1,9.8-6.8,22.1-15.1
						C194,221.4,204,214.9,204.1,215z"/>
				</g>
			</g>
			<g>
				<g>
					<path class="st3" d="M240.4,205.9c0.1,0.1-16.4,11.2-36.8,24.9c-20.4,13.6-36.9,24.6-37,24.5c-0.1-0.1,16.4-11.2,36.8-24.9
						C223.8,216.7,240.3,205.8,240.4,205.9z"/>
				</g>
			</g>
			<g>
				<g>
					<path class="st3" d="M247.7,216.7c0.1,0.1-16.4,11.2-36.8,24.9c-20.4,13.6-36.9,24.6-37,24.5c-0.1-0.1,16.4-11.2,36.8-24.9
						C231.1,227.6,247.6,216.6,247.7,216.7z"/>
				</g>
			</g>
			<g>
				<g>
					<path class="st3" d="M255,227.6c0.1,0.1-16.4,11.2-36.8,24.9c-20.4,13.6-36.9,24.6-37,24.5c-0.1-0.1,16.4-11.2,36.8-24.9
						C238.3,238.5,254.9,227.5,255,227.6z"/>
				</g>
			</g>
			<g>
				<g>
					<path class="st3" d="M262.3,238.5c0.1,0.1-16.4,11.2-36.8,24.9c-20.4,13.6-36.9,24.6-37,24.5s16.4-11.2,36.8-24.9
						C245.6,249.4,262.2,238.4,262.3,238.5z"/>
				</g>
			</g>
		</g>
		<g>
			<g>
				
					<rect x="507.5" y="275.4" transform="matrix(0.8312 -0.556 0.556 0.8312 -99.8754 368.8255)" class="st2" width="99.8" height="146.9"/>
			</g>
			<g>
				<g>
					<polygon class="st3" points="596.9,376.4 596,382.3 554.7,376.3 555.7,370.5 					"/>
				</g>
				<g>
					<polygon class="st3" points="576.1,355.7 582,356.5 575.5,397.1 569.6,396.3 					"/>
				</g>
			</g>
			<g>
				<g>
					<path class="st4" d="M564.4,306.5"/>
				</g>
			</g>
			<g>
				<g>
					<path class="st3" d="M538.1,304.1c0.1,0.1-8.2,5.8-18.5,12.7c-10.3,6.9-18.7,12.4-18.8,12.3c-0.1-0.1,8.2-5.8,18.5-12.7
						C529.7,309.5,538.1,304,538.1,304.1z"/>
				</g>
			</g>
			<g>
				<g>
					<path class="st3" d="M568.7,296.4c0.1,0.1-13.7,9.5-30.8,20.9c-17.1,11.4-31,20.6-31.1,20.5c-0.1-0.1,13.7-9.5,30.9-20.9
						C554.7,305.5,568.6,296.3,568.7,296.4z"/>
				</g>
			</g>
			<g>
				<g>
					<path class="st3" d="M574.8,305.5c0.1,0.1-13.7,9.5-30.8,20.9c-17.1,11.4-31,20.6-31.1,20.5s13.7-9.5,30.9-20.9
						C560.8,314.6,574.7,305.4,574.8,305.5z"/>
				</g>
			</g>
			<g>
				<g>
					<path class="st3" d="M580.9,314.7c0.1,0.1-13.7,9.5-30.8,20.9c-17.1,11.4-31,20.6-31.1,20.5c-0.1-0.1,13.7-9.5,30.9-20.9
						C566.9,323.8,580.8,314.6,580.9,314.7z"/>
				</g>
			</g>
			<g>
				<g>
					<path class="st3" d="M587,323.8c0.1,0.1-13.7,9.5-30.8,20.9c-17.1,11.4-31,20.6-31.1,20.5c-0.1-0.1,13.7-9.5,30.9-20.9
						C573,332.9,586.9,323.7,587,323.8z"/>
				</g>
			</g>
		</g>
		<g>
			<g>
				
					<rect x="270.4" y="159.1" transform="matrix(0.4716 -0.8818 0.8818 0.4716 -2.7327 416.2199)" class="st2" width="151.1" height="102.6"/>
			</g>
			<g>
				<g>
					<polygon class="st3" points="340.1,259.5 334.3,261.5 319.7,221.2 325.5,219.2 					"/>
				</g>
				<g>
					<polygon class="st3" points="348.9,230.6 351,236.4 310.9,250.1 308.9,244.3 					"/>
				</g>
			</g>
			<g>
				<g>
					<path class="st4" d="M387.8,196.2"/>
				</g>
			</g>
			<g>
				<g>
					<path class="st3" d="M377.3,171.2c-0.1,0.1-9.3-4.6-20.5-10.7c-11.3-6-20.3-11-20.2-11.1c0.1-0.1,9.2,4.6,20.5,10.7
						C368.3,166.1,377.4,171.1,377.3,171.2z"/>
				</g>
			</g>
			<g>
				<g>
					<path class="st3" d="M399,195.2c-0.1,0.1-15.3-7.9-33.9-17.8c-18.7-10-33.7-18.2-33.7-18.3c0.1-0.1,15.3,7.9,33.9,17.8
						C384,186.8,399.1,195,399,195.2z"/>
				</g>
			</g>
			<g>
				<g>
					<path class="st3" d="M393.7,205.1c-0.1,0.1-15.3-7.9-33.9-17.8c-18.7-10-33.7-18.2-33.7-18.3c0.1-0.1,15.3,7.9,33.9,17.8
						C378.7,196.8,393.8,205,393.7,205.1z"/>
				</g>
			</g>
			<g>
				<g>
					<path class="st3" d="M388.3,215.1c-0.1,0.1-15.3-7.9-33.9-17.8c-18.7-10-33.7-18.2-33.7-18.3c0.1-0.1,15.3,7.9,33.9,17.8
						C373.3,206.8,388.4,215,388.3,215.1z"/>
				</g>
			</g>
			<g>
				<g>
					<path class="st3" d="M383,225.1c-0.1,0.1-15.3-7.9-33.9-17.8c-18.7-10-33.7-18.2-33.7-18.3c0.1-0.1,15.3,7.9,33.9,17.8
						C368,216.7,383.1,224.9,383,225.1z"/>
				</g>
			</g>
		</g>
		<rect x="381.2" y="55" class="st5" width="2.3" height="38.7"/>
	</g>
	<g id="Lamp">
		<g>
			<g>
				<g>
					<path class="st6" d="M329.3,140.5h106c0,0-9.8-46.9-53.8-46.9C342.4,93.7,329.3,140.5,329.3,140.5z"/>
				</g>
			</g>
			<rect x="381.2" y="55" class="st6" width="2.3" height="38.7"/>
		</g>
	</g>
	<g id="Floor">
		<g>
			<g>
				<path class="st7" d="M618.4,442.2c0,0.1-113.8,0.2-254.1,0.2c-140.4,0-254.1-0.1-254.1-0.2c0-0.1,113.7-0.2,254.1-0.2
					C504.7,441.9,618.4,442,618.4,442.2z"/>
			</g>
		</g>
	</g>
	<g id="Plant">
		<g>
			<g>
				<path class="st6" d="M138.4,387c3,0.1,5.8,1.7,7.7,4c2,2.2,3.2,5.1,3.9,7.9c1.5,5.6,0.6,12.1-1,17.7c-6-2.2-9.7-8.6-11.4-12
					C134.9,399.3,133.4,388,138.4,387"/>
			</g>
			<g>
				<path class="st6" d="M157.7,423.3c-1.9-2.7-1.9-6.5-0.4-9.5c1.5-3,4.4-5.1,7.6-6.1c1.5-0.5,3.2-0.6,4.5,0.2
					c1.2,0.8,1.7,2.4,1.6,3.8c-0.2,1.4-0.9,2.7-1.7,3.9C166.2,419.6,162.6,422.9,157.7,423.3"/>
			</g>
			<g>
				<g>
					<path class="st7" d="M158.4,441.9c0,0-0.1-0.4-0.3-1.2c-0.2-0.8-0.4-1.9-0.6-3.2c-0.5-2.7-1.2-6.5-0.7-10.7
						c0.5-4.2,2.2-7.7,4-9.9c0.9-1.1,1.7-1.8,2.3-2.3c0.3-0.2,0.6-0.4,0.7-0.5c0.2-0.1,0.3-0.2,0.3-0.2c0.1,0.1-1.4,1-3,3.2
						c-1.7,2.1-3.2,5.6-3.8,9.8c-0.6,4.1,0.1,7.9,0.5,10.5c0.2,1.3,0.4,2.4,0.5,3.2C158.3,441.5,158.4,441.9,158.4,441.9z"/>
				</g>
			</g>
			<g>
				<g>
					<path class="st7" d="M140.3,395.5c0,0,0.1,0.2,0.2,0.5c0.2,0.3,0.4,0.8,0.6,1.3c0.5,1.2,1.3,2.9,2.2,5
						c1.8,4.2,4.2,10.1,6.8,16.6c2.5,6.5,4.7,12.5,6.2,16.8c0.8,2.2,1.3,3.9,1.7,5.2c0.2,0.6,0.3,1,0.4,1.4c0.1,0.3,0.1,0.5,0.1,0.5
						c0,0-0.1-0.2-0.2-0.5c-0.1-0.4-0.3-0.8-0.5-1.4c-0.5-1.3-1.1-3-1.9-5.1c-1.6-4.3-3.8-10.3-6.3-16.8c-2.5-6.5-4.9-12.4-6.7-16.6
						c-0.9-2.1-1.6-3.8-2.1-5c-0.2-0.6-0.4-1-0.5-1.4C140.4,395.7,140.3,395.5,140.3,395.5z"/>
				</g>
			</g>
			<g>
				<path class="st6" d="M151.2,429.6c-3.6-6-10.2-10.2-17.2-10.7c-1.8-0.1-3.9,0.2-4.7,1.8c-0.8,1.6,0.3,3.5,1.5,4.8
					c5,5.5,13.6,7.4,20.5,4.6"/>
			</g>
			<g>
				<g>
					<path class="st7" d="M136.7,423.7c0,0,0.4,0,1.1,0c0.4,0,0.8,0.1,1.3,0.2c0.5,0.1,1.1,0.1,1.7,0.3c0.6,0.2,1.3,0.3,2,0.6
						c0.7,0.2,1.5,0.5,2.3,0.9c1.6,0.7,3.2,1.6,4.8,2.8c1.6,1.2,2.9,2.6,3.9,3.9c0.5,0.7,1,1.3,1.4,2c0.4,0.6,0.7,1.3,1,1.8
						c0.3,0.6,0.5,1.1,0.7,1.6c0.2,0.5,0.3,0.9,0.4,1.2c0.2,0.7,0.3,1.1,0.3,1.1c-0.1,0-0.5-1.5-1.7-3.8c-0.3-0.6-0.6-1.2-1.1-1.8
						c-0.4-0.6-0.9-1.3-1.4-1.9c-1.1-1.3-2.4-2.6-3.9-3.8c-1.5-1.2-3.2-2.1-4.7-2.8c-0.8-0.3-1.5-0.7-2.2-0.9
						c-0.7-0.3-1.4-0.4-2-0.6C138.3,423.9,136.7,423.8,136.7,423.7z"/>
				</g>
			</g>
		</g>
	</g>
	<g id="Character">
		<g>
			<g>
				<g>
					<path class="st7" d="M536.3,147.8c-2.6,0.6-3.8,3.6-4.1,6.2c-0.2,2.6,0.1,5.4-1,7.8c-1.2,2.7-4.2,4.7-4.3,7.7
						c-0.1,1.8,1,3.5,1,5.4c-0.1,3-3.1,5.3-3.3,8.2c-0.1,2.2,1.3,4.2,1,6.3c-0.3,1.7-1.6,3-2.1,4.5c-1.1,3.2,1.1,6.6,3.9,8.4
						c3.2,2,7.2,2.5,10.7,1.4c3.5-1.1,6.5-3.9,8-7.3c1.6-3.8,1.2-8.1,0.9-12.2c-1.1-12.8-1.8-25.6-2.4-38.4"/>
				</g>
				<g>
					<g>
						<path class="st8" d="M528.8,192.9c-0.1-0.1,0.7-0.3,1.2-1.4c0.2-0.6,0.3-1.3,0.3-2.1c0-0.9-0.3-1.8-0.6-2.9
							c-0.3-1-0.7-2.3-0.5-3.6c0.2-1.4,1.2-2.5,2.1-3.6c0.5-0.6,0.9-1.1,1.2-1.8c0.3-0.7,0.4-1.4,0.1-2.1c-0.5-1.4-1.9-2.5-2.5-4.2
							c-0.3-0.8-0.3-1.7-0.1-2.6c0.2-0.8,0.5-1.6,0.8-2.3c0.7-1.4,1.4-2.7,1.7-4.1c0.6-2.8,0.3-5.5,0.7-7.6c0.4-2.2,1.3-3.8,2.2-4.7
							c0.4-0.4,0.9-0.7,1.2-0.8c0.3-0.1,0.5-0.2,0.5-0.2c0,0-0.7,0.3-1.5,1.1c-0.8,0.9-1.7,2.5-2,4.6c-0.2,1.1-0.2,2.3-0.2,3.6
							c0,1.3-0.1,2.7-0.4,4.1c-0.3,1.5-1.1,2.8-1.8,4.2c-0.7,1.4-1.3,3-0.7,4.5c0.6,1.5,2,2.6,2.5,4.2c0.3,0.8,0.2,1.7-0.2,2.4
							c-0.3,0.7-0.8,1.3-1.3,1.9c-0.9,1.1-1.8,2.2-2.1,3.4c-0.2,1.2,0.1,2.4,0.4,3.5c0.3,1,0.6,2,0.6,2.9c0,0.9-0.1,1.7-0.4,2.2
							c-0.3,0.6-0.6,0.9-0.9,1.1C529,192.9,528.8,192.9,528.8,192.9z"/>
					</g>
				</g>
			</g>
			<path class="st9" d="M521.9,213.8l-7.9,22.9l-33.1,1.8l-5.5,12.3l34.6,3.5c6.9,2.9,14.8-0.6,17.3-7.7l9.2-25.8L521.9,213.8z"/>
			<g>
				<g>
					<g>
						<path class="st9" d="M590.4,429.7c0,0-24.3-77.1-24.8-79.6c-0.5-2.3,8.8-57.8,10-72.1l-32.8,1.2c0,0,0,0.1,0,0.2l-13.9,0.8
							l12.5,157.7h15.1l-1.5-52.3c9.3,25,22.7,50.5,22.7,50.5L590.4,429.7z"/>
					</g>
					<g>
						<path class="st10" d="M555.5,404.4c0-0.5-0.2-17.5-0.2-17.5c-0.2,1-5.8-14.8-5.7-15.8C549.8,370.6,555.5,404.4,555.5,404.4z"
							/>
					</g>
				</g>
				<g>
					<path class="st10" d="M549.1,363.6c0,0-0.1,0.3-0.1,1c0,0.6,0,1.5,0,2.6c0,0.6,0.1,1.2,0.2,1.8c0.1,0.6,0.2,1.3,0.3,2.1
						c0.3,1.4,0.7,3,1.2,4.6c1.1,3.2,2.3,6,3.2,8c0.4,0.9,0.8,1.7,1.1,2.4c0.3,0.6,0.4,0.9,0.4,0.8c0,0-0.1-0.3-0.3-0.9
						s-0.5-1.4-0.9-2.4c-0.8-2.1-1.9-4.9-3-8c-0.5-1.6-1-3.1-1.3-4.5c-0.2-0.7-0.3-1.4-0.4-2c-0.1-0.6-0.2-1.2-0.2-1.8
						c-0.1-1.1-0.2-2-0.2-2.6C549.1,363.9,549.1,363.6,549.1,363.6z"/>
				</g>
			</g>
			<g>
				<g>
					<g>
						<g>
							<path class="st8" d="M541,438.7l0-1.4l15.5-0.7l0,5.8l-1,0.1c-4.2,0.2-21.6,1-24.4,0.1C528,441.7,541,438.7,541,438.7z"/>
						</g>
					</g>
					<g>
						<g>
							<path class="st7" d="M556.7,442.1c0,0-0.1,0-0.3,0c-0.2,0-0.5,0-0.8,0c-0.8,0-1.7,0.1-2.8,0.1c-2.4,0.1-5.6,0.2-9.2,0.2
								c-3.6,0-6.9,0-9.2-0.1c-1.1,0-2-0.1-2.8-0.1c-0.3,0-0.5,0-0.8,0c-0.2,0-0.3,0-0.3,0c0,0,0.1,0,0.3,0c0.2,0,0.5,0,0.8,0
								c0.8,0,1.7,0,2.8,0c2.4,0,5.6,0.1,9.2,0.1c3.6,0,6.9-0.1,9.2-0.1c1.1,0,2-0.1,2.8-0.1c0.3,0,0.5,0,0.8,0
								C556.7,442.1,556.7,442.1,556.7,442.1z"/>
						</g>
					</g>
					<g>
						<g>
							<path class="st7" d="M536,442.6c-0.1,0-0.1-0.7-0.5-1.3c-0.4-0.7-1-1-1-1.1c0,0,0.7,0.2,1.1,1
								C536.1,441.9,536.1,442.6,536,442.6z"/>
						</g>
					</g>
					<g>
						<g>
							<path class="st7" d="M540.5,440.3c0,0-0.3-0.2-0.5-0.6c-0.2-0.4-0.4-0.7-0.3-0.7s0.3,0.2,0.5,0.6
								C540.4,440,540.6,440.3,540.5,440.3z"/>
						</g>
					</g>
					<g>
						<g>
							<path class="st7" d="M541.8,439.6c0,0-0.3-0.1-0.5-0.4c-0.3-0.2-0.5-0.5-0.4-0.5c0,0,0.3,0.1,0.5,0.4
								C541.6,439.4,541.8,439.6,541.8,439.6z"/>
						</g>
					</g>
					<g>
						<g>
							<path class="st7" d="M542.6,438.2c0,0.1-0.4,0.1-0.8,0.1c-0.4,0-0.8,0-0.8-0.1c0-0.1,0.4-0.1,0.8-0.1
								C542.2,438.1,542.6,438.1,542.6,438.2z"/>
						</g>
					</g>
					<g>
						<g>
							<path class="st7" d="M542.8,437.1c0,0-0.4,0.2-0.9,0.3c-0.5,0-0.9-0.1-0.9-0.1c0-0.1,0.4,0,0.9-0.1
								C542.4,437.2,542.8,437.1,542.8,437.1z"/>
						</g>
					</g>
					<g>
						<g>
							<path class="st7" d="M540,438.9c0,0-0.4,0.1-1,0c-0.3,0-0.7-0.1-1.1-0.2c-0.2-0.1-0.4-0.1-0.6-0.2c-0.1-0.1-0.2-0.2-0.2-0.3
								c0-0.1,0-0.3,0.1-0.4c0.9-0.5,1.9,0,2.2,0.5c0.2,0.2,0.3,0.5,0.3,0.7c0,0.2,0,0.3,0,0.3c0,0-0.1-0.4-0.5-0.8
								c-0.2-0.2-0.5-0.4-0.8-0.5c-0.3-0.1-0.8-0.1-1.2,0.1c-0.2,0.1-0.1,0.3,0.1,0.4c0.2,0.1,0.4,0.2,0.6,0.2
								c0.4,0.1,0.7,0.2,1,0.3C539.6,438.9,540,438.9,540,438.9z"/>
						</g>
					</g>
					<g>
						<g>
							<path class="st7" d="M539.8,439c0,0-0.2-0.2-0.1-0.7c0-0.2,0.1-0.5,0.3-0.7c0.2-0.2,0.4-0.5,0.8-0.5c0.2,0,0.3,0.3,0.3,0.5
								c0,0.2-0.1,0.3-0.2,0.4c-0.1,0.2-0.3,0.4-0.5,0.6C540.1,438.9,539.9,439,539.8,439c0.1,0,0.3-0.2,0.6-0.5
								c0.1-0.2,0.3-0.4,0.4-0.6c0.1-0.2,0.2-0.6,0-0.6c-0.2,0-0.5,0.2-0.6,0.4c-0.2,0.2-0.2,0.4-0.3,0.6
								C539.7,438.7,539.8,439,539.8,439z"/>
						</g>
					</g>
					<g>
						<g>
							<path class="st7" d="M556.4,437.9c0,0-0.4,0-1.1,0c-0.7,0.1-1.6,0.4-2.5,1c-0.8,0.7-1.3,1.5-1.5,2.2
								c-0.2,0.7-0.3,1.1-0.3,1.1c0,0,0-0.1,0-0.3c0-0.2,0.1-0.5,0.2-0.8c0.2-0.7,0.7-1.6,1.6-2.3c0.9-0.7,1.9-1,2.6-1
								c0.4,0,0.6,0,0.8,0C556.3,437.9,556.4,437.9,556.4,437.9z"/>
						</g>
					</g>
					<g>
						<g>
							<path class="st7" d="M549,440.9c0,0-1,0.2-2.2,0.2c-1.3,0-2.3-0.1-2.2-0.2c0-0.1,1,0,2.2,0C548,440.9,549,440.8,549,440.9z"
								/>
						</g>
					</g>
					<g>
						<g>
							<path class="st7" d="M552,440.9c0,0-0.1,0.2-0.2,0.4c-0.1,0.2-0.2,0.4-0.2,0.4c-0.1,0-0.1-0.2,0-0.5
								C551.8,441,552,440.8,552,440.9z"/>
						</g>
					</g>
					<g>
						<g>
							<path class="st7" d="M553.2,439.4c0,0-0.1,0.2-0.2,0.4c-0.2,0.2-0.3,0.3-0.4,0.2c0,0,0.1-0.2,0.2-0.4
								C553,439.5,553.1,439.4,553.2,439.4z"/>
						</g>
					</g>
					<g>
						<g>
							<path class="st7" d="M554.8,438.8c0,0.1-0.2,0.1-0.4,0.1c-0.2,0.1-0.4,0.2-0.4,0.2c0,0,0.1-0.2,0.4-0.3
								C554.6,438.6,554.8,438.7,554.8,438.8z"/>
						</g>
					</g>
					<g>
						<g>
							<path class="st7" d="M555.9,438.5c0,0-0.1,0.1-0.2,0.2c-0.1,0.1-0.2,0.1-0.3,0c0,0,0.1-0.1,0.2-0.2
								C555.8,438.4,555.9,438.4,555.9,438.5z"/>
						</g>
					</g>
				</g>
			</g>
			<g>
				<g>
					<g>
						<g>
							<path class="st8" d="M577.3,437.3l-0.6-1.3l13.8-6.9l2.4,5.3l-0.8,0.4c-3.8,2-19.3,9.7-22.3,10.1
								C566.6,445.4,577.3,437.3,577.3,437.3z"/>
						</g>
					</g>
					<g>
						<g>
							<path class="st7" d="M593,434c0,0-0.1,0.1-0.2,0.1c-0.2,0.1-0.4,0.2-0.7,0.4c-0.7,0.3-1.5,0.8-2.5,1.3
								c-2.1,1.1-5.1,2.5-8.3,4c-3.3,1.5-6.3,2.8-8.5,3.7c-1,0.4-1.9,0.8-2.6,1c-0.3,0.1-0.5,0.2-0.7,0.3c-0.2,0.1-0.2,0.1-0.3,0.1
								c0,0,0.1,0,0.2-0.1c0.2-0.1,0.4-0.2,0.7-0.3c0.7-0.3,1.6-0.7,2.6-1.1c2.2-0.9,5.2-2.2,8.4-3.7c3.3-1.5,6.2-2.9,8.4-3.9
								c1-0.5,1.8-0.9,2.5-1.2c0.3-0.1,0.5-0.2,0.7-0.3C592.9,434,593,434,593,434z"/>
						</g>
					</g>
					<g>
						<g>
							<path class="st7" d="M574.3,443c0,0-0.4-0.6-1-1c-0.7-0.5-1.3-0.5-1.3-0.6c0,0,0.7-0.1,1.4,0.4
								C574.1,442.3,574.3,442.9,574.3,443z"/>
						</g>
					</g>
					<g>
						<g>
							<path class="st7" d="M577.5,439c0,0-0.3-0.1-0.7-0.3c-0.4-0.2-0.6-0.5-0.6-0.5c0,0,0.3,0.1,0.7,0.3
								C577.2,438.7,577.5,438.9,577.5,439z"/>
						</g>
					</g>
					<g>
						<g>
							<path class="st7" d="M578.3,437.9c0,0-0.3,0-0.6-0.1c-0.3-0.1-0.6-0.2-0.6-0.3c0,0,0.3,0,0.6,0.1
								C578.1,437.7,578.4,437.8,578.3,437.9z"/>
						</g>
					</g>
					<g>
						<g>
							<path class="st7" d="M578.5,436.2c0,0-0.3,0.2-0.7,0.4c-0.4,0.2-0.7,0.3-0.8,0.3c0,0,0.3-0.2,0.7-0.4
								C578.1,436.3,578.4,436.2,578.5,436.2z"/>
						</g>
					</g>
					<g>
						<g>
							<path class="st7" d="M578.3,435.2c0,0-0.2,0.4-0.7,0.6c-0.5,0.3-0.9,0.3-0.9,0.3c0-0.1,0.4-0.2,0.8-0.4
								C577.9,435.4,578.2,435.1,578.3,435.2z"/>
						</g>
					</g>
					<g>
						<g>
							<path class="st7" d="M576.4,438c0,0-0.3,0.2-0.9,0.4c-0.3,0.1-0.7,0.2-1.1,0.2c-0.2,0-0.4,0.1-0.7,0c-0.1,0-0.3-0.1-0.3-0.2
								c-0.1-0.1-0.1-0.3,0-0.4c0.7-0.8,1.7-0.7,2.3-0.4c0.3,0.1,0.5,0.3,0.6,0.5c0.1,0.1,0.1,0.2,0.1,0.2c0,0-0.2-0.3-0.8-0.6
								c-0.3-0.1-0.6-0.2-1-0.2c-0.4,0.1-0.8,0.2-1,0.6c-0.1,0.2,0,0.3,0.2,0.3c0.2,0,0.4,0,0.6,0c0.4,0,0.7-0.1,1-0.2
								C576.1,438.1,576.4,437.9,576.4,438z"/>
						</g>
					</g>
					<g>
						<g>
							<path class="st7" d="M576.2,438.1c0,0-0.2-0.2-0.4-0.6c-0.1-0.2-0.1-0.5-0.1-0.8c0.1-0.3,0.1-0.6,0.5-0.8
								c0.2-0.1,0.7,0.4,0.8,0.5c0.1,0.2-0.3,0.1-0.3,0.2c0,0.3-0.1,0.5-0.2,0.7C576.5,437.9,576.3,438.1,576.2,438.1
								c0-0.1,0.2-0.3,0.3-0.7c0.1-0.2,0.1-0.4,0.1-0.7c0-0.2,0-0.6-0.3-0.6c-0.2,0.1-0.4,0.4-0.4,0.7c-0.1,0.3,0,0.5,0,0.7
								C576.1,437.9,576.3,438.1,576.2,438.1z"/>
						</g>
					</g>
					<g>
						<g>
							<path class="st7" d="M591,430.3c0,0-0.4,0.1-1,0.5c-0.6,0.4-1.4,1-1.8,2c-0.5,0.9-0.6,1.9-0.5,2.6c0.1,0.7,0.2,1.1,0.2,1.1
								c0,0-0.1-0.1-0.1-0.3c-0.1-0.2-0.1-0.5-0.2-0.8c-0.1-0.7,0-1.7,0.5-2.7c0.5-1,1.3-1.7,1.9-2c0.3-0.2,0.6-0.3,0.8-0.3
								C590.9,430.3,591,430.3,591,430.3z"/>
						</g>
					</g>
					<g>
						<g>
							<path class="st7" d="M585.4,436.1c0,0-0.8,0.6-2,1.1c-1.1,0.5-2.1,0.8-2.1,0.7c0-0.1,0.9-0.4,2.1-0.9
								C584.5,436.5,585.4,436,585.4,436.1z"/>
						</g>
					</g>
					<g>
						<g>
							<path class="st7" d="M588.2,434.8c0,0,0,0.2,0,0.5c0,0.3,0,0.5,0,0.5c0,0-0.2-0.2-0.2-0.5C588,435,588.1,434.8,588.2,434.8z"
								/>
						</g>
					</g>
					<g>
						<g>
							<path class="st7" d="M588.6,433c0,0,0,0.2-0.1,0.4c-0.1,0.2-0.2,0.4-0.2,0.4c0,0,0-0.2,0.1-0.4
								C588.5,433.2,588.6,433,588.6,433z"/>
						</g>
					</g>
					<g>
						<g>
							<path class="st7" d="M589.8,431.8c0,0.1-0.2,0.1-0.3,0.3c-0.2,0.2-0.3,0.3-0.3,0.3c0,0,0-0.3,0.2-0.5
								C589.6,431.7,589.8,431.7,589.8,431.8z"/>
						</g>
					</g>
					<g>
						<g>
							<path class="st7" d="M590.8,431c0,0,0,0.1-0.1,0.2c-0.1,0.1-0.2,0.1-0.2,0.1c0,0,0-0.1,0.1-0.2
								C590.6,431,590.7,431,590.8,431z"/>
						</g>
					</g>
				</g>
			</g>
			<g>
				<g>
					<g>
						<g>
							<g>
								<g>
									<g>
										<g>
											<path class="st6" d="M573.5,251.9l-2.6-31.4l13.2,0.2c0,0,0.6-4.6-1.3-14.8c-1.2-6.2-5.3-10.1-10-12.3l0-0.1l-0.4-0.1
												c-5.9-2.8-12.1-3.2-12.1-3.2l-16.2,0.2c0,0-12.4-1.5-19.3,7.3c-2.6,3.4-10.8,26.7-10.8,26.7l19.5,9.4l-1.9-12.9
												c0,0,0.4,9.4,1.6,12.3c0.7,1.7,2.6,6.8,2.6,6.8l-0.3,15.5L573.5,251.9z"/>
										</g>
									</g>
								</g>
							</g>
						</g>
						<g>
							<polygon class="st6" points="564.5,215.9 562.1,226.1 584.8,226.1 583.3,208.9 							"/>
						</g>
						<g>
							<g>
								<path class="st7" d="M584.8,226.1c0-0.1-1.1-0.2-3-0.3s-4.4-0.2-7.3-0.2c-2.9,0-5.4,0.1-7.3,0.3c-1.9,0.1-3,0.3-3,0.4
									c0,0.1,1.2,0,3,0c1.9-0.1,4.4-0.1,7.3-0.1c2.8,0,5.4,0,7.3,0C583.7,226.2,584.8,226.2,584.8,226.1z"/>
							</g>
						</g>
						<g>
							<g>
								<path class="st7" d="M563.5,208.8c-0.1,0-0.1,1-0.1,2.6c0,1.6,0.1,3.8,0.2,6.3c0.1,2.5,0.2,4.7,0.3,6.3
									c0.1,1.6,0.2,2.6,0.3,2.6c0.1,0,0.1-1,0.1-2.6c0-1.6-0.1-3.8-0.2-6.3c-0.1-2.5-0.2-4.7-0.3-6.3
									C563.7,209.8,563.6,208.8,563.5,208.8z"/>
							</g>
						</g>
						<g class="st11">
							<path d="M542.8,217.7c0,0,5.1,37.5,19.3,36.5c0,0,6.4-0.1,8.5-4.3v-1.7L542.8,217.7z"/>
						</g>
					</g>
				</g>
				<g class="st11">
					<polygon points="563.5,211 560.8,229.4 562.6,232.6 565.5,226.3 564.2,226.3 					"/>
				</g>
				<g>
					<g>
						<path class="st7" d="M535.7,240c0,0-0.2-0.3-0.4-0.9c-0.2-0.6-0.5-1.4-0.9-2.5c-0.7-2.1-1.5-5-2.2-8.3c-0.7-3.3-1-6.3-1.1-8.5
							c-0.1-1.1-0.1-2-0.1-2.6c0-0.6,0-1,0.1-1c0.1,0,0.1,1.4,0.3,3.5c0.2,2.2,0.6,5.2,1.2,8.5c0.7,3.3,1.4,6.2,2,8.3
							c0.3,1,0.5,1.8,0.7,2.5C535.7,239.6,535.7,240,535.7,240z"/>
					</g>
				</g>
				<g>
					<g>
						<path class="st7" d="M541.5,250.8c-0.1,0-0.5-0.8-0.8-1.8c-0.3-1-0.5-1.9-0.3-1.9s0.5,0.8,0.8,1.8
							C541.4,249.9,541.6,250.7,541.5,250.8z"/>
					</g>
				</g>
				<g>
					<g>
						<path class="st7" d="M543.4,250.6c-0.1,0-0.5-1.2-0.5-2.7c0-1.6,0.3-2.8,0.4-2.8c0.1,0,0,1.2,0,2.7
							C543.4,249.4,543.5,250.6,543.4,250.6z"/>
					</g>
				</g>
				<g>
					<g>
						<path class="st7" d="M533.8,234.2c-0.1,0.1-4.6-2-10.1-4.8c-5.5-2.8-10-5.1-9.9-5.2c0.1-0.1,4.6,2,10.1,4.8
							C529.4,231.8,533.9,234.1,533.8,234.2z"/>
					</g>
				</g>
			</g>
			<g>
				<g>
					<g>
						<g>
							<g>
								<g>
									<g>
										<g>
											<g>
												<path class="st9" d="M541.8,193.4c0.1-4.5,0.1-9.1,0.1-9.1s-5.7-1.1-6.7-8.6c-0.9-7.2,1.7-24,1.7-24l0,0
													c8.3-3.2,17-0.3,22.7,6.5l0,0l-1.4,36.2c-0.2,4.2-3.9,7.4-8.4,7.2l0,0C545.3,201.3,541.7,197.7,541.8,193.4z"/>
											</g>
										</g>
									</g>
									<g>
										<g>
											<g>
												<g>
													<path class="st7" d="M536.5,165.1c0,0.5,0.4,0.9,0.9,1c0.5,0,1-0.3,1-0.8c0-0.5-0.4-1-0.9-1
														C537,164.2,536.5,164.6,536.5,165.1z"/>
												</g>
											</g>
										</g>
										<g>
											<g>
												<g>
													<g>
														<path class="st7" d="M536.1,163.9c0.1,0.1,0.9-0.4,1.9-0.4c1,0,1.8,0.6,1.9,0.4c0.1-0.1-0.1-0.3-0.4-0.5
															c-0.3-0.2-0.9-0.5-1.5-0.5c-0.6,0-1.2,0.2-1.5,0.4C536.2,163.6,536.1,163.8,536.1,163.9z"/>
													</g>
												</g>
											</g>
										</g>
									</g>
									<g>
										<g>
											<g>
												<g>
													<path class="st7" d="M547,165.8c0,0.5,0.4,1,0.9,1c0.5,0,1-0.3,1-0.8c0-0.5-0.4-1-0.9-1
														C547.4,164.9,547,165.3,547,165.8z"/>
												</g>
											</g>
										</g>
										<g>
											<g>
												<g>
													<g>
														<path class="st7" d="M546.9,164.5c0.1,0.1,0.9-0.4,1.9-0.4c1,0,1.8,0.6,1.9,0.4c0.1-0.1-0.1-0.3-0.4-0.5
															c-0.3-0.2-0.9-0.5-1.5-0.5c-0.6,0-1.2,0.2-1.5,0.4C546.9,164.2,546.8,164.5,546.9,164.5z"/>
													</g>
												</g>
											</g>
										</g>
									</g>
									<g>
										<g>
											<g>
												<g>
													<path class="st7" d="M542.9,172.1c0-0.1-0.6-0.2-1.7-0.3c-0.3,0-0.5-0.1-0.6-0.3c-0.1-0.2,0.1-0.5,0.2-0.8
														c0.3-0.6,0.5-1.3,0.8-2c1.2-2.8,2-5.2,1.9-5.2s-1.1,2.2-2.3,5c-0.3,0.7-0.5,1.4-0.8,2c-0.1,0.3-0.3,0.6-0.2,1
														c0.1,0.2,0.3,0.3,0.4,0.4c0.2,0.1,0.3,0.1,0.4,0.1C542.3,172.1,542.9,172.1,542.9,172.1z"/>
												</g>
											</g>
										</g>
									</g>
									<g>
										<g>
											<g>
												<path class="st10" d="M541.9,184.3c0,0,5,0.5,10.1-2.4c0,0-2.6,5.1-10,4.2L541.9,184.3z"/>
											</g>
										</g>
									</g>
								</g>
							</g>
						</g>
					</g>
				</g>
				<g>
					<g>
						<path class="st7" d="M550.2,161.5c-0.2,0.3-1,0.2-1.9,0c-0.9-0.2-1.7-0.3-1.7-0.7c-0.1-0.4,0.8-0.9,2-0.6
							C549.8,160.4,550.4,161.2,550.2,161.5z"/>
					</g>
				</g>
				<g>
					<g>
						<path class="st7" d="M539.9,160c-0.1,0.4-0.9,0.5-1.9,0.6c-1,0-1.8,0-1.9-0.4c-0.1-0.4,0.7-0.9,1.9-1
							C539.1,159.1,540,159.6,539.9,160z"/>
					</g>
				</g>
				<g>
					<path class="st10" d="M543,174.5c-0.2-0.1-0.5,0.1-0.6,0.3c-0.1,0.2-0.1,0.6,0.1,0.7c0.2,0.2,0.5,0.2,0.7,0
						c0.2-0.2,0.3-0.5,0.2-0.7c-0.1-0.2-0.4-0.4-0.7-0.3"/>
				</g>
				<g>
					<g>
						<path class="st7" d="M543.2,174.6c0,0-0.2-0.3-0.6-0.2c-0.2,0-0.5,0.2-0.6,0.6c-0.1,0.3,0,0.7,0.3,0.9c0.3,0.2,0.7,0.2,1,0
							c0.3-0.2,0.4-0.5,0.3-0.7C543.6,174.7,543.2,174.7,543.2,174.6c0,0.1,0.1,0.3,0.1,0.6c0,0.1-0.1,0.3-0.2,0.3
							c-0.1,0.1-0.3,0.1-0.4,0c-0.1-0.1-0.2-0.3-0.2-0.4c0-0.1,0.1-0.3,0.2-0.3C543,174.6,543.2,174.7,543.2,174.6z"/>
					</g>
				</g>
				<g>
					<g>
						<path class="st7" d="M556.2,167c-0.9,2.1-3.1,3.7-2.8,5.9c0.2,1.4,1.1,2.8,0.9,4.2c-0.2,1.8-2.1,3.1-2.4,4.9
							c-0.3,2.2,1.8,3.9,2.7,6c1.3,3-0.3,6.4-0.4,9.6c-0.1,5,4.2,9.6,9.1,10.1c2,0.2,4.3-0.4,5.3-2.2c0.9-1.4,0.7-3.2,1.2-4.8
							c0.8-2.4,3-4.1,3.5-6.5c0.9-4.4-4.5-8.1-4.1-12.6c0.2-1.9,1.3-3.6,1.8-5.5c0.7-2.4,0.1-5.2-1.6-7.1c-1.3-1.6-3.2-2.6-4.4-4.3
							c-1.3-1.9-1.3-4.4-1.8-6.7c-1.2-5.6-5.3-10.4-10.7-12.3c-5.3-2-11.6-1-16.1,2.5c0,0-1.3,5.8,4.7,6.8c6,1,8.7-0.1,9.4,2.2
							c0,0-0.7,2.8,1.8,5.5C554.9,165.1,557.2,164.6,556.2,167z"/>
					</g>
					<g>
						<g>
							<path class="st8" d="M565.7,207.2c0,0-0.2,0-0.5-0.1c-0.4-0.1-0.9-0.2-1.5-0.4c-1.3-0.5-3.1-1.5-4.6-3.4
								c-0.8-1-1.5-2.1-2-3.5c-0.5-1.4-0.8-2.9-0.8-4.5c0-1.6,0.2-3.3,0.6-5c0.2-0.9,0.5-1.7,0.8-2.5c0.3-0.8,0.7-1.7,1-2.5
								c0.3-0.9,0.2-1.7,0-2.6c-0.2-0.8-0.6-1.6-1-2.4c-0.4-0.8-0.8-1.6-1-2.4c-0.3-0.8-0.4-1.7-0.2-2.5c0.4-1.7,1.4-2.9,2-4.1
								c0.6-1.2,0.8-2.6,0.8-3.7c-0.1-2.4-1.1-4.2-2-5.2c-0.9-1-1.5-1.4-1.5-1.5c0,0,0.7,0.3,1.6,1.3c0.9,1,2,2.8,2.2,5.3
								c0.1,1.2-0.1,2.6-0.8,3.9c-0.6,1.3-1.6,2.5-1.9,4.1c-0.3,1.5,0.4,3.1,1.2,4.6c0.4,0.8,0.8,1.6,1,2.5c0.2,0.9,0.3,1.9,0,2.8
								c-0.2,0.9-0.7,1.8-1,2.6c-0.3,0.8-0.6,1.7-0.8,2.5c-0.4,1.7-0.7,3.3-0.6,4.9c0,3.2,1.1,5.9,2.6,7.8c1.5,1.9,3.2,2.9,4.4,3.4
								C564.9,207.1,565.7,207.2,565.7,207.2z"/>
						</g>
					</g>
					<g>
						<g>
							<path class="st8" d="M564.8,162.8c0,0-0.5,0.1-1.3,0.2c-0.8,0.1-2.1,0.2-3.6-0.1c-1.5-0.3-3.4-1-4.6-2.8
								c-0.6-0.9-0.8-2-1.2-3c-0.4-1-1.1-1.9-2-2.5c-1.9-1.2-4.2-1.4-6.2-1.6c-2-0.2-3.9-0.6-5.1-1.6c-1.3-0.9-1.9-2.1-2.1-2.9
								c-0.1-0.4-0.1-0.8-0.1-1c0-0.2,0.1-0.3,0.1-0.3c0.1,0-0.1,0.5,0.2,1.3c0.2,0.8,0.9,1.9,2.1,2.7c1.2,0.9,3,1.2,5,1.4
								c2,0.2,4.3,0.3,6.4,1.6c1,0.6,1.8,1.6,2.2,2.7c0.4,1,0.6,2.1,1.1,2.9c1.1,1.6,2.8,2.4,4.3,2.7c1.5,0.3,2.7,0.3,3.6,0.2
								C564.3,162.8,564.8,162.8,564.8,162.8z"/>
						</g>
					</g>
					<g>
						<g>
							<path class="st8" d="M562.6,155.6c0,0-0.4,0.1-1,0.2c-0.7,0-1.7-0.1-2.8-0.6c-0.6-0.3-1.1-0.6-1.6-1.1
								c-0.5-0.5-1-1.1-1.4-1.8c-0.8-1.3-1.6-3-3.2-3.7c-1.6-0.7-3.4-0.5-4.9-0.4c-1.6,0.2-3,0.2-4.2,0c-1.2-0.2-2.1-0.7-2.6-1.2
								c-0.3-0.2-0.4-0.4-0.5-0.6c-0.1-0.1-0.1-0.2-0.1-0.2c0,0,0.2,0.3,0.8,0.7c0.5,0.4,1.4,0.8,2.5,1c1.2,0.2,2.6,0.1,4.1-0.1
								c1.6-0.1,3.4-0.3,5.2,0.4c0.9,0.4,1.6,1,2.1,1.7c0.5,0.7,0.9,1.5,1.3,2.1c0.4,0.7,0.8,1.3,1.3,1.8c0.5,0.5,1,0.9,1.5,1.1
								c1,0.5,2,0.7,2.6,0.7C562.3,155.6,562.6,155.6,562.6,155.6z"/>
						</g>
					</g>
					<g>
						<g>
							<path class="st8" d="M568.3,205.3c0,0,0.2-0.6,0.6-1.7c0.3-1.1,0.6-2.7,0.6-4.7c-0.1-2-0.6-4.4-1.9-6.7
								c-0.6-1.2-1.6-2.2-2.4-3.4c-0.4-0.6-0.7-1.3-0.9-2.1c-0.1-0.8-0.1-1.6,0.2-2.4c0.5-1.5,1.4-2.8,1.6-4.2
								c0.2-1.4-0.5-2.7-1.1-3.8c-0.3-0.6-0.7-1.2-0.9-1.7c-0.3-0.6-0.4-1.2-0.5-1.8c-0.1-1.2,0-2.3,0.1-3.4c0.3-2,0.1-3.7-0.4-4.7
								c-0.5-1-1.1-1.3-1-1.4c0,0,0,0,0.1,0.1c0.1,0,0.2,0.1,0.3,0.2c0.2,0.2,0.5,0.5,0.8,1c0.6,1,0.8,2.8,0.6,4.8
								c-0.1,1-0.2,2.1,0,3.3c0.1,1.2,0.7,2.3,1.4,3.4c0.3,0.6,0.7,1.2,1,1.9c0.3,0.7,0.4,1.5,0.3,2.2c-0.2,1.5-1.1,2.8-1.6,4.3
								c-0.2,0.7-0.3,1.4-0.2,2.2c0.1,0.7,0.4,1.4,0.8,2c0.8,1.2,1.7,2.3,2.4,3.5c1.4,2.4,1.8,4.9,1.8,6.9c0,2.1-0.4,3.7-0.7,4.8
								c-0.2,0.5-0.4,0.9-0.5,1.2C568.4,205.2,568.3,205.3,568.3,205.3z"/>
						</g>
					</g>
				</g>
			</g>
			<g>
				<g>
					<path class="st7" d="M532.5,369.3c0,0-5.9-56.2-6.3-77c-0.3-20.8,9.3-41.3,9.3-41.3l37.9-1.6c0,0,7.5,21.1,7.6,29.9
						c0.3,17.2-4.6,34.2-4,47.8l1.3,42.1"/>
				</g>
				<g>
					<g>
						<path class="st12" d="M579.6,300.2c0,0-0.2,0.2-0.6,0.5c-0.1,0.1-0.2,0.2-0.3,0.2c-0.1,0.1-0.2,0.2-0.4,0.4
							c-0.3,0.3-0.6,0.5-0.8,0.9c-1.2,1.5-2.1,4.2-3,7.5c-0.5,1.7-0.9,3.5-1.9,5.3c-0.3,0.4-0.5,0.9-0.8,1.3
							c-0.2,0.2-0.3,0.4-0.5,0.6l-0.6,0.6c-0.8,0.8-1.8,1.4-2.9,1.8c-2.1,0.9-4.5,1.4-6.7,2.5c-2.2,1.1-3.9,3.2-4.9,5.5
							c-1.1,2.4-1.7,4.9-2.6,7.2c-0.9,2.3-2.1,4.6-4,6c-1.9,1.5-4.2,1.8-6.2,1.9c-2,0.1-3.9,0.1-5.6,0.3c-1.7,0.2-3.2,0.8-4.2,1.6
							c-1.1,0.8-1.7,1.9-2,2.8c-0.3,0.9-0.2,1.7-0.1,2.2c0.1,0.5,0.2,0.7,0.2,0.7c0,0-0.2-0.2-0.3-0.7c-0.1-0.5-0.2-1.3,0.1-2.2
							c0.3-0.9,0.9-2,2-2.9c1.1-0.9,2.6-1.5,4.4-1.7c1.7-0.3,3.6-0.2,5.7-0.4c2-0.1,4.2-0.5,6-1.9c1.8-1.4,2.9-3.5,3.8-5.8
							c0.9-2.3,1.5-4.8,2.6-7.3c1-2.4,2.8-4.6,5.1-5.8c2.3-1.1,4.7-1.6,6.7-2.5c1-0.4,2-1,2.7-1.7l0.6-0.6c0.2-0.2,0.3-0.4,0.5-0.6
							c0.3-0.4,0.6-0.9,0.8-1.3c1-1.8,1.5-3.6,1.9-5.3c0.9-3.3,1.8-6,3.1-7.5c0.3-0.4,0.6-0.7,0.9-0.9c0.1-0.1,0.3-0.2,0.4-0.3
							c0.1-0.1,0.3-0.2,0.4-0.2C579.4,300.4,579.6,300.2,579.6,300.2z"/>
					</g>
				</g>
				<g>
					<g>
						<path class="st12" d="M579.8,274.2c0,0,0,0.3,0,0.8c0,0.5-0.1,1.2-0.3,2.2c-0.4,1.8-1.8,4.3-4.3,6.6c-1.2,1.1-2.7,2.2-4.4,3.2
							c-1.7,1-3.6,2-5.5,3.1c-1.9,1.1-3.9,2.3-5.6,4c-1.8,1.6-3.1,3.7-4.3,6c-1.2,2.2-2.3,4.5-3.7,6.5c-0.7,1-1.5,1.9-2.4,2.7
							c-0.9,0.8-1.9,1.4-2.9,1.9c-2,1-4,1.7-5.9,2.3c-1.9,0.6-3.6,1.1-5.2,1.7c-1.5,0.6-2.9,1.4-3.9,2.1c-1.1,0.8-1.9,1.6-2.5,2.3
							c-1.2,1.5-1.4,2.5-1.5,2.5c0,0,0.1-0.2,0.2-0.7c0.2-0.4,0.5-1.1,1.1-1.9c0.6-0.8,1.4-1.6,2.5-2.4c1.1-0.8,2.4-1.5,4-2.2
							c1.5-0.7,3.3-1.2,5.2-1.8c1.9-0.6,3.9-1.3,5.8-2.3c1-0.5,1.9-1.1,2.8-1.9c0.9-0.7,1.6-1.6,2.3-2.6c1.4-1.9,2.4-4.2,3.7-6.5
							c1.2-2.3,2.5-4.4,4.4-6.1c1.8-1.7,3.8-2.9,5.7-4c1.9-1.1,3.8-2,5.5-3c1.7-1,3.2-2,4.4-3.2c2.5-2.2,3.8-4.6,4.3-6.4
							C579.9,275.3,579.8,274.2,579.8,274.2z"/>
					</g>
				</g>
				<g>
					<g>
						<path class="st12" d="M526.4,295.3c0,0,0-0.1-0.1-0.2c0-0.1-0.1-0.3-0.2-0.5c-0.1-0.5-0.2-1.2,0.1-2.1c0.5-1.8,2.4-4,5.6-5.1
							c1.6-0.5,3.3-0.9,5.2-1.3c1.8-0.5,3.8-1.2,5.3-2.7c0.7-0.8,1.4-1.6,1.9-2.6c0.5-1,0.9-2.1,1.3-3.2c0.8-2.2,1.5-4.6,2.8-6.7
							c1.3-2.2,3.5-3.7,5.7-4.5c2.2-0.8,4.5-1.2,6.6-1.7c2.1-0.5,4.1-1,5.7-2c1.6-0.9,3-2.2,3.9-3.5c1.9-2.6,2.4-5.3,2.5-7.1
							c0-1.8-0.2-2.8-0.2-2.8c0,0,0.4,1,0.4,2.8c0,1.8-0.5,4.6-2.4,7.3c-0.9,1.4-2.3,2.7-4,3.6c-1.7,0.9-3.7,1.6-5.8,2
							c-2.1,0.5-4.3,0.9-6.5,1.7c-2.2,0.8-4.2,2.2-5.5,4.3c-1.3,2.1-2,4.4-2.8,6.7c-0.4,1.1-0.8,2.2-1.3,3.2c-0.5,1-1.2,1.9-2,2.7
							c-1.6,1.6-3.7,2.3-5.5,2.8c-1.9,0.5-3.6,0.8-5.2,1.3c-3.1,1-5,3.2-5.5,4.9c-0.3,0.9-0.2,1.6-0.2,2
							C526.3,295.1,526.4,295.3,526.4,295.3z"/>
					</g>
				</g>
				<g>
					<g>
						<path class="st12" d="M576.6,342.9c0,0,0,0.2,0.1,0.6c0,0.4,0,0.9-0.2,1.6c-0.3,1.4-1.4,3.2-3.3,4.8c-1,0.8-2.1,1.5-3.5,2.1
							c-1.3,0.6-2.8,1-4.4,1.5c-1.6,0.5-3.2,1-4.8,1.7c-1.6,0.7-3.1,1.8-4.3,3.2c-1.3,1.3-2.4,2.8-3.6,4.1c-1.2,1.3-2.6,2.4-4.1,3.2
							c-2.9,1.6-5.9,2.1-8.4,2.2c-2.5,0-4.5-0.5-5.8-1c-0.7-0.2-1.1-0.5-1.5-0.6c-0.3-0.2-0.5-0.3-0.5-0.3c0,0,0.2,0.1,0.5,0.2
							c0.3,0.1,0.8,0.3,1.5,0.5c1.3,0.4,3.3,0.9,5.7,0.8c2.4-0.1,5.4-0.6,8.2-2.2c1.4-0.8,2.7-1.8,3.9-3.1c1.2-1.3,2.3-2.7,3.6-4.1
							c1.3-1.4,2.8-2.5,4.5-3.2c1.6-0.8,3.3-1.3,4.8-1.7c1.6-0.5,3-0.9,4.4-1.5c1.3-0.5,2.5-1.2,3.4-2c1.9-1.5,3-3.2,3.4-4.5
							C576.7,343.6,576.5,342.9,576.6,342.9z"/>
					</g>
				</g>
			</g>
			<g>
				<path class="st9" d="M572.3,226.2l-7.3,0.2c-0.5,2.5-1.7,4.2-1.7,4.2c-6.1-10.6-10.9-24.9-12.1-30.6c0.2-0.6,0.4-1.2,0.6-1.9
					c0.3-0.8,0-2.4-0.1-3.2c-0.2-1.3-0.6-3-0.7-3.8c-0.3-2.4-0.7-2.8-1.6-2.5c-1.1,0.4,0.5,6.8-0.5,6.9c-0.5,0.1-1.1-2.1-1.3-3.9
					s-1-7.4-1.6-7.7c-0.9-0.5-1.6,0.3-1.4,2.1c0.2,1.8,0.5,7.3-0.4,7.3c-0.9,0.1-1.7-9.1-1.7-9.1s0.1-2-1-2c-2,0.1-0.4,9.8-0.3,10.7
					c0.1,0.6-0.9,0.8-1,0.1c-0.1-0.7-0.6-9.2-2.6-9.1c-1.6,0.1,1.2,8,0.3,9.9c-0.9,1.8-1.5-6.3-3-6.2c-0.6,0-1,0.2,0.1,4.7
					c0.5,2.5,2.2,7,3.6,10.8c2.4,12.7,12.7,53.4,28.9,46c9.1-4.2,12.8-22.6,12.8-22.6L572.3,226.2z"/>
				<g>
					<g>
						<path class="st10" d="M541,193.4c0,0,0.1,0,0.2,0c0.1,0,0.4-0.2,0.3-0.5c0-0.5-0.1-1.3-0.2-2.4c-0.1-1-0.4-2.3-0.4-3.7
							c0-0.7,0-1.5,0-2.4c0-0.4,0-0.9,0.1-1.3c0.1-0.4,0.3-0.9,0.6-0.8l0,0l0,0c0.3,0,0.6,0.2,0.7,0.6c0.1,0.4,0.1,0.8,0.1,1.2l0,0
							l0,0c0.2,2.3,0.4,4.7,0.9,7.3c0.1,0.3,0.1,0.7,0.2,1c0.1,0.2,0.1,0.3,0.2,0.5c0,0.1,0.1,0.2,0.1,0.3c0.1,0.1,0.1,0.2,0.4,0.2
							c0.4,0,0.5-0.3,0.6-0.5c0.1-0.2,0.1-0.4,0.2-0.5c0.1-0.4,0.1-0.7,0.1-1.1c0.1-1.4,0-2.9-0.1-4.4c0-0.8-0.2-1.5-0.1-2.2
							c0.1-0.3,0.2-0.7,0.4-0.8c0.1-0.1,0.2-0.1,0.4,0c0.1,0,0.1,0,0.2,0.1c0.1,0.1,0,0,0.1,0.1c0.3,0.6,0.4,1.5,0.6,2.2
							c0.2,0.8,0.3,1.6,0.4,2.4c0.1,0.8,0.2,1.6,0.3,2.4c0.1,0.8,0.2,1.7,0.4,2.5c0.1,0.4,0.2,0.8,0.4,1.2c0.1,0.2,0.2,0.4,0.4,0.6
							c0.1,0.1,0.3,0.3,0.5,0.2c0.2-0.1,0.3-0.3,0.4-0.4c0.1-0.5,0.1-0.9,0.1-1.4c0-0.4-0.1-0.9-0.1-1.3c-0.1-0.7-0.1-1.5-0.2-2.2
							c0-0.4,0-0.7,0-1.1c0-0.2,0.1-0.3,0.1-0.5c0-0.1,0.1-0.1,0.1-0.1c0,0,0,0,0,0l0.1,0c0.6-0.2,0.8,0.6,0.9,1.2
							c0.1,0.7,0.2,1.4,0.4,2.1c0.2,1.4,0.5,2.8,0.7,4.1c0.1,0.7,0.1,1.3-0.1,1.9c-0.2,0.6-0.4,1.3-0.6,1.9l0,0.1l0,0.1
							c1.1,4.7,2.6,9,3.9,12.7c1.4,3.8,2.8,7,4,9.7c1.2,2.7,2.3,4.7,3.1,6.1c0.4,0.7,0.7,1.2,0.9,1.6c0.2,0.4,0.3,0.5,0.3,0.5
							c0,0-0.1-0.2-0.3-0.6c-0.2-0.4-0.5-0.9-0.8-1.6c-0.7-1.4-1.8-3.5-3-6.1c-1.2-2.7-2.5-5.9-3.9-9.7c-1.3-3.8-2.8-8-3.9-12.7
							l0,0.1c0.2-0.6,0.4-1.2,0.6-1.9c0.2-0.7,0.2-1.4,0.1-2.1c-0.2-1.4-0.4-2.7-0.7-4.1c-0.1-0.7-0.2-1.4-0.4-2.1
							c-0.1-0.4-0.2-0.7-0.4-1.1c-0.1-0.2-0.2-0.4-0.5-0.5c-0.2-0.1-0.5-0.1-0.7,0l-0.1,0c-0.1,0-0.1,0.1-0.2,0.1
							c-0.1,0.1-0.2,0.2-0.2,0.3c-0.1,0.2-0.1,0.4-0.1,0.6c0,0.4,0,0.8,0,1.1c0,0.7,0.1,1.5,0.2,2.2c0,0.4,0.1,0.9,0.1,1.3
							c0,0.4,0,0.9-0.1,1.2c0,0.1-0.1,0.1,0,0.1l0,0c0,0,0,0,0,0l0,0c0,0,0,0,0,0c0,0,0,0,0,0c0,0,0,0-0.1,0
							c-0.1-0.1-0.2-0.3-0.3-0.5c-0.2-0.4-0.3-0.8-0.4-1.2c-0.2-0.8-0.3-1.6-0.4-2.4c-0.1-0.8-0.2-1.6-0.3-2.5
							c-0.1-0.8-0.3-1.6-0.4-2.4c-0.2-0.8-0.3-1.6-0.7-2.4c0-0.1-0.2-0.3-0.3-0.3c-0.1-0.1-0.2-0.1-0.3-0.1c-0.2-0.1-0.5,0-0.7,0.1
							c-0.4,0.3-0.6,0.7-0.7,1.1c-0.1,0.4-0.1,0.8,0,1.2c0,0.4,0.1,0.7,0.1,1.1c0.1,1.5,0.2,2.9,0.1,4.3c0,0.3-0.1,0.7-0.1,1
							c0,0.2-0.1,0.3-0.1,0.5c0,0.1-0.1,0.1-0.1,0.2c0,0.1-0.1,0-0.1,0.1c0-0.1,0,0,0-0.1c0,0-0.1-0.1-0.1-0.2
							c-0.1-0.1-0.1-0.3-0.2-0.5c-0.1-0.3-0.2-0.6-0.2-1c-0.5-2.6-0.8-5.1-1-7.3v0c0-0.5,0-0.9-0.1-1.3c-0.1-0.2-0.2-0.4-0.3-0.6
							c-0.2-0.2-0.4-0.2-0.7-0.2l0,0c-0.4-0.1-0.6,0.2-0.8,0.4c-0.2,0.2-0.2,0.5-0.3,0.7c-0.1,0.5-0.1,0.9-0.1,1.3
							c0,0.8,0,1.6,0,2.4c0,1.5,0.4,2.7,0.5,3.8c0.2,1,0.3,1.8,0.3,2.4c0.1,0.3-0.1,0.4-0.3,0.5C541,193.4,541,193.4,541,193.4z"/>
					</g>
				</g>
			</g>
			<path class="st9" d="M483.6,238.3c0,0-2.4-0.1-5.1,0.6c-4.5,1.2-12.4,6-12.7,11.8h5.7c0,0-3.2,6.8-2.3,6.2
				c2.4-1.6,7.3-6.6,7.3-6.6L483.6,238.3z"/>
			<g>
				<g>
					<g>
						<path class="st7" d="M561.4,136c-0.1,0-0.6-4.7-1.2-10.5c-0.5-5.8-0.8-10.6-0.7-10.6c0.1,0,0.6,4.7,1.2,10.5
							C561.2,131.3,561.5,136,561.4,136z"/>
					</g>
				</g>
				<g>
					<g>
						<path class="st7" d="M586.4,115.2c0.1,0.1-3.7,5.7-8.6,12.5c-4.9,6.8-8.9,12.3-9,12.2c-0.1-0.1,3.7-5.7,8.6-12.5
							C582.3,120.6,586.3,115.1,586.4,115.2z"/>
					</g>
				</g>
				<g>
					<g>
						<path class="st7" d="M596.8,140.5c0,0.1-4.5,1.2-10,2.3c-5.6,1.1-10.1,2-10.1,1.8s4.5-1.2,10-2.3
							C592.2,141.3,596.8,140.4,596.8,140.5z"/>
					</g>
				</g>
			</g>
		</g>
	</g>
	<g id="Folder">
		<g>
			<g>
				<path class="st6" d="M297.4,261.5l-31.1,160l-4.1,20.9l207.8-1c9.3,0,17.6-8.3,20.6-20.6l36.8-151.1c2.3-9.3-2.7-19.1-9.8-19
					l-210.3,0.2C302.7,250.9,298.6,255.2,297.4,261.5z"/>
			</g>
			<g class="st13">
				<path d="M297.4,261.5l-31.1,160l-4.1,20.9l207.8-1c9.3,0,17.6-8.3,20.6-20.6l36.8-151.1c2.3-9.3-2.7-19.1-9.8-19l-210.3,0.2
					C302.7,250.9,298.6,255.2,297.4,261.5z"/>
			</g>
			<g>
				<path class="st6" d="M450.1,410.6l-22-177.3c-0.9-7.3-6.7-12.7-13.5-12.7l-48.2,0.2c-3.6,0-7,1.5-9.5,4.2l-22.9,24.4l-134.2,0.7
					c-8.2,0-14.5,7.8-13.4,16.5l20.4,163.9c0.9,7.3,6.7,12.7,13.5,12.7l233.8-0.5c26,0.5,28.5-7.2,28.5-7.2
					C452.7,442.2,450.1,410.7,450.1,410.6z"/>
			</g>
			<g class="st13">
				<polygon class="st14" points="349.2,375.2 341.3,383.6 280.6,329 288.5,320.5 				"/>
				<polygon class="st14" points="338,318.6 346.8,326.5 291.8,385.5 283.1,377.7 				"/>
			</g>
		</g>
	</g>
	<g id="Speech_Bubble">
		<g>
			<g>
				<g>
					<g>
						<path class="st6" d="M483.5,146.4c-0.6-0.2-1-0.8-1-1.4l-0.4-8.2c0-0.5,0.2-1,0.6-1.3c0.4-0.3,0.9-0.5,1.4-0.3
							c1.3,0.3,2.8,0,4-0.8c1.1-0.7,1.9-1.8,2.1-3c0.2-1.2-0.2-2.5-1-3.5c-0.9-1.2-2.2-1.9-3.5-2.1c-2.7-0.3-5.5,1.7-6.2,4.4
							c-0.2,0.9-1.1,1.4-2,1.2c-0.9-0.2-1.4-1.1-1.2-2c1.2-4.3,5.6-7.3,9.8-6.8c2.2,0.3,4.3,1.5,5.7,3.4c1.4,1.8,1.9,4,1.6,6
							c-0.3,2.1-1.6,4-3.5,5.2c-1.4,0.9-2.9,1.4-4.5,1.5l0.3,6.3c0,0.9-0.7,1.7-1.6,1.7C483.9,146.5,483.7,146.4,483.5,146.4z"/>
					</g>
				</g>
				<g>
					<g>
						<path class="st6" d="M485.9,149.7c0.1,0.7-0.5,1.4-1.2,1.4c-0.7,0.1-1.4-0.5-1.4-1.2c-0.1-0.7,0.5-1.4,1.2-1.4
							C485.2,148.4,485.8,149,485.9,149.7z"/>
					</g>
				</g>
			</g>
			<g>
				<g>
					<g>
						<path class="st7" d="M455.2,134.8c0,0,0-0.2,0.1-0.5c0-0.4,0.1-0.9,0.2-1.6c0-0.7,0.2-1.5,0.4-2.5c0.1-0.5,0.2-1,0.4-1.6
							c0.2-0.6,0.4-1.2,0.5-1.8c0.9-2.5,2.2-5.4,4.4-8.4c2.2-2.9,5.3-5.9,9.2-8.1c2-1.2,4.2-2,6.5-2.7c2.4-0.6,4.9-1,7.5-1
							c1.3-0.1,2.6,0.1,4,0.2c0.7,0.1,1.3,0.2,2,0.4c0.7,0.1,1.4,0.3,2,0.5c2.7,0.7,5.4,2,7.9,3.6c5,3.2,9.3,8.3,11.6,14.6
							c1.2,3.1,1.7,6.6,1.7,10c0.1,3.5-0.6,7-1.8,10.3l-0.4,1l-0.1,0.1l0.1,0.1c2.2,5.1,4.4,10.1,6.5,14.9l0.4-0.4
							c-4.5-1.7-9-3.4-13.2-5.1l-0.2-0.1l-0.1,0.1c-3.7,3.5-8,5.9-12.4,7.2c-4.4,1.3-8.9,1.3-13,0.6c-4.1-0.7-7.7-2.3-10.8-4.3
							c-3.1-2-5.5-4.4-7.4-6.9c-1.9-2.5-3.1-5.1-4.1-7.4c-0.8-2.3-1.3-4.4-1.6-6.1c-0.1-0.9-0.2-1.6-0.3-2.3c0-0.7,0-1.2,0-1.7
							c0-0.4,0-0.8,0-1C455.2,135,455.2,134.8,455.2,134.8c0,0,0,0.1,0,0.3c0,0.3,0,0.6,0,1c0,0.5,0,1,0,1.7
							c0.1,0.7,0.1,1.4,0.2,2.3c0.2,1.7,0.7,3.8,1.5,6.2c0.9,2.3,2.2,4.9,4,7.5c1.9,2.5,4.4,5,7.5,7.1c3.1,2.1,6.8,3.7,10.9,4.4
							c4.1,0.8,8.7,0.7,13.2-0.6c4.5-1.3,9-3.7,12.7-7.3l-0.3,0.1c4.2,1.6,8.6,3.3,13.2,5.1l0.7,0.3l-0.3-0.7
							c-2.1-4.8-4.3-9.8-6.5-14.9l0,0.3l0.4-1c1.3-3.4,2-7,1.9-10.6c0-3.5-0.6-7.1-1.8-10.3c-2.4-6.4-6.7-11.7-11.9-14.9
							c-2.6-1.6-5.3-2.9-8-3.6c-0.7-0.2-1.4-0.4-2.1-0.5c-0.7-0.1-1.4-0.3-2.1-0.4c-1.4-0.1-2.7-0.3-4.1-0.2c-2.7-0.1-5.2,0.4-7.6,1
							c-2.4,0.7-4.6,1.6-6.6,2.8c-4,2.3-7.1,5.2-9.3,8.2c-2.2,3-3.5,6-4.3,8.5c-0.2,0.6-0.4,1.2-0.5,1.8c-0.2,0.6-0.2,1.1-0.3,1.6
							c-0.2,1-0.4,1.9-0.4,2.6c0,0.7-0.1,1.2-0.1,1.6C455.2,134.6,455.2,134.8,455.2,134.8z"/>
					</g>
				</g>
			</g>
		</g>
	</g>
</g>
</svg>
