<?xml version="1.0" encoding="UTF-8"?>
<svg xmlns="http://www.w3.org/2000/svg" xmlns:xlink="http://www.w3.org/1999/xlink" width="2423" height="2423" viewBox="0 0 2423 2423">
<path fill-rule="nonzero" fill="#555E68" fill-opacity="1" d="M 603.105469 693.398438 L 866.398438 693.398438 L 994.546875 1122.46875 L 1126.941406 693.398438 L 1382.171875 693.398438 L 789.730469 2140.726562 L 1023.710938 1370.601562 L 877.644531 1370.601562 L 603.105469 693.398438 "/>
<path fill-rule="nonzero" fill="#555E68" fill-opacity="1" d="M 1170.148438 1556.945312 L 1420.929688 1533.460938 C 1431.320312 1563.90625 1445.75 1585.652344 1464.421875 1598.699219 C 1483.089844 1611.746094 1507.910156 1618.273438 1539.101562 1618.273438 C 1573.050781 1618.273438 1599.351562 1610.878906 1618.03125 1595.871094 C 1632.660156 1585 1639.878906 1571.082031 1639.878906 1554.554688 C 1639.878906 1535.851562 1630.328125 1521.28125 1611.230469 1511.0625 C 1597.660156 1503.882812 1561.378906 1494.96875 1502.609375 1484.3125 C 1414.769531 1468.652344 1353.878906 1454.082031 1319.511719 1440.601562 C 1285.351562 1427.335938 1256.710938 1404.5 1233.160156 1372.75 C 1209.820312 1340.78125 1198.160156 1304.46875 1198.160156 1263.578125 C 1198.160156 1219 1214.960938 1183.449219 1235.921875 1148.320312 C 1593.960938 548.238281 1885.351562 -499.941406 1374.140625 1065.238281 C 1373.789062 1066.320312 1684.578125 1022.601562 1786.269531 1127.878906 C 1811.390625 1153.890625 1832.101562 1188.988281 1848.648438 1233.351562 L 1609.328125 1256.839844 C 1603.171875 1235.308594 1592.78125 1219.441406 1578.351562 1209.21875 C 1558.621094 1195.730469 1534.648438 1188.988281 1506.429688 1188.988281 C 1478 1188.988281 1457.210938 1194.210938 1444.261719 1204.648438 C 1431.320312 1215.089844 1424.75 1227.699219 1424.75 1242.488281 C 1424.75 1259.230469 1433.019531 1271.628906 1449.359375 1280.109375 C 1465.691406 1288.808594 1501.761719 1296.421875 1557.140625 1303.160156 C 1641.359375 1312.949219 1703.738281 1326.648438 1744.898438 1344.050781 C 1785.839844 1361.441406 1817.25 1386.230469 1838.890625 1418.640625 C 1860.738281 1451.035156 1871.558594 1486.484375 1871.558594 1525.195312 C 1871.558594 1564.339844 1860.101562 1602.398438 1836.980469 1639.367188 C 1814.058594 1676.335938 1777.78125 1705.691406 1728.351562 1727.65625 C 1678.921875 1749.621094 1611.449219 1760.496094 1526.160156 1760.496094 C 1405.648438 1760.496094 1319.71875 1742.882812 1268.589844 1707.433594 C 1217.460938 1672.203125 1184.578125 1621.96875 1170.148438 1556.945312 "/>
</svg>
